Coordinates
version=1
nRows=20
nColumns=38
inDegrees=no

Units are S.I. units (second, meters, Newtons, ...)
If the header above contains a line with 'inDegrees', this indicates whether rotational values are in degrees (yes) or radians (no).

endheader
time	pelvis_tilt	pelvis_list	pelvis_rotation	pelvis_tx	pelvis_ty	pelvis_tz	hip_flexion_r	hip_adduction_r	hip_rotation_r	knee_angle_r	ankle_angle_r	subtalar_angle_r	mtp_angle_r	hip_flexion_l	hip_adduction_l	hip_rotation_l	knee_angle_l	ankle_angle_l	subtalar_angle_l	mtp_angle_l	lumbar_extension	lumbar_bending	lumbar_rotation	arm_flex_r	arm_add_r	arm_rot_r	elbow_flex_r	pro_sup_r	wrist_flex_r	wrist_dev_r	arm_flex_l	arm_add_l	arm_rot_l	elbow_flex_l	pro_sup_l	wrist_flex_l	wrist_dev_l
50	-0.125364	1.35692	1.53251	0.756812	0.0970708	0.851603	0.812827	0.0320108	0.198093	1.29196	0.490562	0	0	0.663607	-0.111634	-0.201329	1.14574	0.523599	0	0	-0.307726	-0.0457607	0.148954	0.233681	-0.214772	0.0112998	0.3482	1.49221	0	0	0.308347	-0.262861	0.377138	0.353775	1.40148	0	0
50.01	-0.156797	1.35288	1.57514	0.755868	0.0954856	0.856442	0.810744	0.0152044	0.192997	1.27287	0.479244	0	0	0.660169	-0.105918	-0.217685	1.11856	0.523599	0	0	-0.30249	-0.0505169	0.137261	0.236505	-0.211184	0.00583026	0.34788	1.49582	0	0	0.312337	-0.265741	0.379753	0.357007	1.40444	0	0
50.02	-0.20497	1.35247	1.62447	0.75559	0.0961658	0.858902	0.792361	0.0093536	0.210588	1.24822	0.489736	0	0	0.651728	-0.0933713	-0.224791	1.10236	0.523599	0	0	-0.28884	-0.0604388	0.134326	0.227303	-0.208571	0.00185541	0.350232	1.50021	0	0	0.304472	-0.270787	0.3837	0.363897	1.409	0	0
50.03	-0.209121	1.35566	1.62538	0.755734	0.0962343	0.863039	0.781296	0.00771841	0.210058	1.23097	0.482714	0	0	0.638989	-0.0940156	-0.231244	1.08311	0.523599	0	0	-0.284052	-0.0601182	0.138539	0.224872	-0.21008	-0.000205597	0.350933	1.50352	0	0	0.301695	-0.269677	0.383781	0.366516	1.41364	0	0
50.04	-0.213788	1.35916	1.6272	0.755888	0.0963606	0.867169	0.769828	0.00556779	0.208841	1.21392	0.47579	0	0	0.625711	-0.0944475	-0.237871	1.0637	0.523599	0	0	-0.279499	-0.059897	0.14226	0.222648	-0.211424	-0.00190541	0.351278	1.50581	0	0	0.299181	-0.268888	0.384457	0.369092	1.41767	0	0
50.05	-0.218907	1.36282	1.62946	0.756067	0.096532	0.871289	0.758071	0.00313281	0.207185	1.19673	0.468883	0	0	0.612017	-0.0950247	-0.245374	1.04408	0.523599	0	0	-0.274924	-0.0598267	0.145914	0.220671	-0.212744	-0.00252182	0.351372	1.50778	0	0	0.296774	-0.268219	0.38506	0.371378	1.42124	0	0
50.06	-0.222924	1.36654	1.63055	0.756301	0.0967446	0.875411	0.746086	0.000808182	0.205061	1.1792	0.46176	0	0	0.598195	-0.0957189	-0.252679	1.0243	0.523599	0	0	-0.270257	-0.0594792	0.14956	0.218751	-0.214143	-0.00245323	0.351298	1.51009	0	0	0.294509	-0.267539	0.386189	0.373008	1.4245	0	0
50.07	-0.209325	1.36659	1.61022	0.756799	0.0962138	0.879603	0.738548	0.0087273	0.211503	1.16005	0.448885	0	0	0.589737	-0.101587	-0.259744	1.00512	0.523599	0	0	-0.262733	-0.0559356	0.157607	0.218043	-0.217663	0.00533753	0.351321	1.49993	0	0	0.293439	-0.265002	0.388989	0.372557	1.42175	0	0
50.08	-0.21067	1.3706	1.60917	0.7571	0.0964525	0.883756	0.725913	0.00708636	0.209305	1.14241	0.441568	0	0	0.575766	-0.102027	-0.265609	0.985425	0.523599	0	0	-0.258706	-0.0550887	0.161059	0.216723	-0.218087	-0.000287923	0.349303	1.51526	0	0	0.292879	-0.264156	0.392221	0.371533	1.4281	0	0
50.09	-0.210749	1.37432	1.60738	0.757382	0.096721	0.887826	0.713439	0.00543307	0.206723	1.12461	0.434183	0	0	0.562246	-0.102208	-0.270696	0.965702	0.523599	0	0	-0.254066	-0.0538382	0.164006	0.214638	-0.219024	0.000310944	0.34846	1.51737	0	0	0.291934	-0.263683	0.396825	0.371047	1.42946	0	0
50.1	-0.210434	1.37779	1.60534	0.757674	0.0970252	0.891822	0.701185	0.00352893	0.203692	1.10655	0.426832	0	0	0.548956	-0.102004	-0.275113	0.945717	0.516428	0	0	-0.248836	-0.0524323	0.166692	0.212132	-0.220247	0.00521212	0.348629	1.51058	0	0	0.290845	-0.262894	0.399048	0.369912	1.432	0	0
50.11	-0.210375	1.38142	1.60325	0.75804	0.0973391	0.895805	0.688701	0.00157085	0.200201	1.08822	0.419372	0	0	0.535275	-0.101758	-0.279751	0.925322	0.506047	0	0	-0.244009	-0.0511965	0.169851	0.209947	-0.220904	0.00505468	0.348447	1.51338	0	0	0.290678	-0.262141	0.404102	0.367818	1.43364	0	0
50.12	-0.216802	1.3712	1.62603	0.757033	0.09584	0.89925	0.693235	-0.0129913	0.185412	1.0702	0.407267	0	0	0.536995	-0.106042	-0.316691	0.898527	0.488127	0	0	-0.22872	-0.0502553	0.154733	0.210451	-0.217393	0.00197705	0.346421	1.51889	0	0	0.293634	-0.264865	0.411584	0.366247	1.43478	0	0
50.13	-0.208812	1.38839	1.59852	0.758837	0.0979908	0.90358	0.664175	-0.00198756	0.193271	1.05213	0.404278	0	0	0.507963	-0.101584	-0.290368	0.884059	0.484867	0	0	-0.234177	-0.0485036	0.175284	0.206024	-0.22139	0.00312444	0.347344	1.52256	0	0	0.290221	-0.260959	0.41321	0.363716	1.43667	0	0
50.14	-0.164667	1.39531	1.54109	0.760038	0.0996245	0.906258	0.647837	0.0112345	0.195449	1.03701	0.401089	0	0	0.492134	-0.108903	-0.283389	0.874323	0.483897	0	0	-0.2259	-0.0381826	0.191726	0.196387	-0.228143	0.0119245	0.351237	1.52	0	0	0.282373	-0.256414	0.416409	0.362201	1.43839	0	0
50.15	-0.162645	1.39843	1.53749	0.760529	0.100028	0.909979	0.635586	0.00984637	0.192489	1.01875	0.393592	0	0	0.479019	-0.108322	-0.287461	0.853974	0.473069	0	0	-0.220088	-0.0368856	0.194409	0.19396	-0.227571	0.00899257	0.350015	1.52636	0	0	0.28124	-0.256053	0.419888	0.360683	1.43823	0	0
50.16	-0.160161	1.40161	1.53341	0.761042	0.100435	0.91367	0.623134	0.0085682	0.189472	1.00022	0.386199	0	0	0.465757	-0.107687	-0.291387	0.833378	0.462103	0	0	-0.214409	-0.0355003	0.196913	0.191179	-0.227519	0.00981407	0.349688	1.52787	0	0	0.279799	-0.255774	0.423746	0.359842	1.44021	0	0
50.17	-0.157192	1.40475	1.52885	0.761559	0.100877	0.91732	0.610581	0.00740428	0.186819	0.981387	0.378709	0	0	0.452541	-0.107085	-0.295421	0.812837	0.451044	0	0	-0.208553	-0.0339271	0.199227	0.188267	-0.227459	0.0098055	0.349506	1.52946	0	0	0.277904	-0.255444	0.427344	0.359054	1.44266	0	0
50.18	-0.153704	1.40779	1.52385	0.762065	0.101343	0.920922	0.598053	0.00627164	0.184186	0.962464	0.371086	0	0	0.439331	-0.106391	-0.299384	0.792027	0.439904	0	0	-0.20255	-0.032134	0.201492	0.185309	-0.227398	0.00973955	0.349512	1.53074	0	0	0.275599	-0.255026	0.429712	0.35808	1.44547	0	0
50.19	-0.149159	1.41077	1.51807	0.762571	0.101831	0.924482	0.585424	0.00501568	0.181012	0.943208	0.363062	0	0	0.426059	-0.105646	-0.303144	0.770851	0.428659	0	0	-0.196474	-0.0300444	0.203548	0.182323	-0.227509	0.0101693	0.349523	1.53227	0	0	0.272942	-0.25454	0.430911	0.357229	1.4491	0	0
